<svg xmlns="http://www.w3.org/2000/svg" viewBox="0 0 1430.165 1129.493"><defs><clipPath id="a"><path fill="none" d="M0 1129.493h1430.165V0H0Z" data-name="Path 2"/></clipPath><clipPath id="b"><path fill="none" d="M0 0h1515.215v1167.293H0z" data-name="Rectangle 18"/></clipPath></defs><g clip-path="url(#a)" data-name="Group 5"><g data-name="Group 4" opacity=".15"><g data-name="Group 3"><g clip-path="url(#b)" data-name="Group 2" transform="translate(-42.525 -33.075)"><g data-name="Group 1"><path fill="#fff" d="M1472.688 1132.659s-67.28 13.05-166.189-60.221c-117.96-76.9-127.817-156.592-192.238-239.785a558.8 558.8 0 0 0 52.656-237.38c0-309.995-252.212-562.2-562.183-562.2-310.009 0-562.211 252.2-562.211 562.2s252.2 562.2 562.211 562.2c171.849 0 325.918-77.547 429.127-199.458 40.867 58.852 83.541 116.795 156.441 160.029 152.855 90.791 282.386 14.615 282.386 14.615m-402.86-537.387a462.9 462.9 0 0 1-29.791 163.769 562 562 0 0 0-48.98-33.8c-198.493-122.621-420.155-20.877-420.155-20.877s149.2-17.813 297.79 75.109c44.67 27.849 77.7 61.345 106.237 97.019-85.027 111.675-219.327 183.907-370.195 183.907-256.5 0-465.145-208.657-465.145-465.126s208.648-465.137 465.145-465.137c256.455 0 465.093 208.671 465.093 465.136m-250.6-214.492 68.636-68.631C812.234 236.511 711.685 194.86 604.734 194.86S397.23 236.511 321.578 312.139c-75.633 75.629-117.266 176.182-117.266 283.133s41.632 207.5 117.266 283.142C397.23 954.043 497.784 995.69 604.734 995.69s207.5-41.66 283.128-117.289l-68.636-68.64a303.32 303.32 0 0 1-428.985 0A303.342 303.342 0 0 1 604.734 291.93a301.4 301.4 0 0 1 214.493 88.85" data-name="Path 1"/></g></g></g></g></g></svg>