<svg xmlns="http://www.w3.org/2000/svg" xmlns:xlink="http://www.w3.org/1999/xlink" width="758.157" height="598.765" viewBox="0 0 758.157 598.765">
  <defs>
    <clipPath id="clip-path">
      <path id="Path_481" data-name="Path 481" d="M0-34.164H758.157V-632.929H0Z" transform="translate(0 632.929)" fill="none"/>
    </clipPath>
  </defs>
  <g id="Group_727" data-name="Group 727" opacity="0.048" clip-path="url(#clip-path)">
    <g id="Group_726" data-name="Group 726" transform="translate(0 0)">
      <path id="Path_480" data-name="Path 480" d="M-43.259-33.26s-35.666,6.919-88.1-31.923c-62.534-40.767-67.76-83.013-101.91-127.115a296.257,296.257,0,0,0,27.913-125.842c0-164.333-133.7-298.03-298.024-298.03-164.34,0-298.038,133.7-298.038,298.03S-667.719-20.1-503.378-20.1c91.1,0,172.776-41.109,227.488-105.737,21.665,31.2,44.289,61.916,82.933,84.835,81.031,48.131,149.7,7.747,149.7,7.747M-256.822-318.139a245.361,245.361,0,0,1-15.794,86.817,297.6,297.6,0,0,0-25.965-17.918c-105.223-65-222.73-11.068-222.73-11.068s79.094-9.443,157.864,39.816c23.68,14.763,41.191,32.52,56.32,51.431-45.076,59.2-116.271,97.493-196.25,97.493-135.973,0-246.583-110.613-246.583-246.573s110.61-246.576,246.583-246.576c135.954,0,246.556,110.619,246.556,246.576m-132.85-113.706,36.388-36.381a210.861,210.861,0,0,0-150.094-62.179,210.927,210.927,0,0,0-150.106,62.174A210.865,210.865,0,0,0-715.65-318.139a210.892,210.892,0,0,0,62.165,150.1,210.924,210.924,0,0,0,150.106,62.171,210.882,210.882,0,0,0,150.094-62.176l-36.388-36.388a159.764,159.764,0,0,1-113.706,47.1,159.709,159.709,0,0,1-113.707-47.1,159.715,159.715,0,0,1-47.1-113.707,159.717,159.717,0,0,1,47.1-113.706,159.718,159.718,0,0,1,113.707-47.1,159.773,159.773,0,0,1,113.706,47.1" transform="translate(801.416 616.169)" fill="#102442"/>
    </g>
  </g>
</svg>
