<svg xmlns="http://www.w3.org/2000/svg" width="133" height="71" viewBox="0 0 132.961 71.183"><g data-name="Group 165"><g data-name="Group 164"><path fill="#efece9" d="M132.961 71.182h-118A15.19 15.19 0 0 1 0 55.763V0h118a15.183 15.183 0 0 1 14.958 15.4Z" data-name="Path 148"/><g data-name="Group 163"><path fill="#183169" d="M130.159 68.719H16.533a14.374 14.374 0 0 1-14.4-14.354v-51.9h113.623a14.37 14.37 0 0 1 14.4 14.336Z" data-name="Path 145"/><path fill="#fff" d="M11.07 48.564q3.646-.32 4.638-1.655c.663-.829 1.047-2.817 1.047-5.8V15.606l-.839-.925a6.4 6.4 0 0 0-2.154-1.879 7.5 7.5 0 0 0-2.7-.384v-1.119h9.922l22.4 27.715V19.799c0-3.2-.5-5.188-1.434-6.184-.608-.608-1.988-1.05-4.142-1.213v-1.1h13.635v1.1c-2.208.221-3.7.771-4.414 1.6s-1.1 2.817-1.1 5.8v30.474h-.992L19.241 18.519v22.587c0 3.2.442 5.188 1.379 6.184.608.6 1.988 1.047 4.084 1.28v1.1H11.07Zm69.1-36.99a30 30 0 0 0 3.7.938 3 3 0 0 0 1.546-.442 2.53 2.53 0 0 0 1.047-1.434h1.207l.554 13.03h-1.325a18.2 18.2 0 0 0-3.034-6.241 11.68 11.68 0 0 0-9.656-4.481 12.34 12.34 0 0 0-9.989 4.8c-2.6 3.2-3.863 7.618-3.863 13.251 0 5.121 1.379 9.282 4.084 12.367A13.06 13.06 0 0 0 74.76 48a16.9 16.9 0 0 0 8.322-2.154 24 24 0 0 0 4.8-3.7l1.1 1.1a19.8 19.8 0 0 1-4.8 4.308 19.52 19.52 0 0 1-10.594 3.152c-6.235 0-11.148-1.988-14.845-5.963a19.7 19.7 0 0 1-5.057-13.788 19.91 19.91 0 0 1 5.352-14.192c3.754-4.03 8.664-6.017 14.678-6.017a19.8 19.8 0 0 1 6.454.828m11.311 36.99c2.317-.221 3.7-.663 4.3-1.28q.826-.912.829-4.638V17.591c0-2.042-.32-3.422-.941-4.03s-2.042-1.05-4.193-1.159v-1.1h30.957l.221 8.28h-1.6c-.384-2.65-1.159-4.363-2.26-5.025-1.1-.717-3.258-1.047-6.513-1.047h-8c-.771 0-1.28.109-1.488.384a2.6 2.6 0 0 0-.32 1.546v12.918h8.443c2.484 0 4.084-.387 4.747-1.1s1.213-2.208 1.655-4.481h1.379v13.41h-1.379q-.663-3.4-1.655-4.481c-.663-.717-2.263-1.1-4.747-1.1h-8.456v12.7c0 2.151.32 3.476.992 4.084s2.1 1 4.3 1.159v1.1H91.531Z" data-name="Path 146"/><g data-name="Group 163"><path fill="#fff" d="M11.847 57.067h-1.6v-.829h4.138v.829h-1.6v4.526h-.938Zm7.006 2.154h-2.756v2.317h-.94v-5.251h.94v2.208h2.759v-2.208h.941v5.3h-.941Zm2.1-2.983h3.644v.829h-2.7v1.379h2.647v.829h-2.653v1.492h2.7v.826h-3.638Zm8.165 1.437v3.863h-.938v-5.251h.938l2.7 3.754v-3.754h.938v5.3h-.879Zm8.5 2.871h-2.54l-.384 1.047h-1.05l2.1-5.307h1.153l2.1 5.3h-1.05Zm-2.26-.829h1.984l-.992-2.7Zm5.131-2.65h-1.6v-.829h4.138v.829h-1.6v4.526h-.94Zm3.476-.829h.932v5.3h-.938Zm5.076-.109a2.762 2.762 0 1 1-2.7 2.817v-.058a2.625 2.625 0 0 1 2.481-2.759Zm0 .826a1.943 1.943 0 0 0 0 3.866 1.79 1.79 0 0 0 1.773-1.805v-.128a1.754 1.754 0 0 0-1.572-1.92 2 2 0 0 0-.203-.012Zm5.079.72v3.863h-.938v-5.251h.938l2.7 3.754v-3.754h.941v5.3h-.874Zm8.443 2.871H60.02l-.384 1.047h-1.049l2.1-5.307h1.159l2.087 5.307h-1.05Zm-2.263-.829h1.984l-.992-2.7Zm4.523-3.479h.941v4.529h2.372v.826h-3.247Zm5.963 2.65a2.663 2.663 0 0 1 2.561-2.759h.186a2.5 2.5 0 0 1 2.205 1.213l-.771.387a1.63 1.63 0 0 0-1.379-.775 1.863 1.863 0 0 0-1.821 1.92v.026a1.83 1.83 0 0 0 1.725 1.92h.1a1.63 1.63 0 0 0 1.379-.775l.771.387a2.38 2.38 0 0 1-2.205 1.216 2.67 2.67 0 0 1-2.759-2.561 2 2 0 0 1 .013-.2Zm8.994 1.658h-2.54l-.387 1.047h-1.047l2.1-5.307h1.159l2.1 5.3h-1.05Zm-2.263-.829h1.988l-1-2.7Zm6.235-.166h-.938v1.988h-.938v-5.252h2.317a1.626 1.626 0 0 1 1.76 1.479 2 2 0 0 1 0 .179 1.476 1.476 0 0 1-1.28 1.546l1.325 2.1h-1.101Zm.387-2.484h-1.282v1.712h1.28a.845.845 0 0 0 .931-.746 1 1 0 0 0 0-.083.915.915 0 0 0-.938-.883Zm2.759-.829h3.642v.829h-2.7v1.379h2.66v.829h-2.65v1.492h2.7v.826h-3.653Zm7.064 0h3.642v.829h-2.707v1.379h2.637v.829h-2.65v2.317h-.938v-5.355Zm7.339-.109a2.762 2.762 0 1 1-2.7 2.817v-.058a2.593 2.593 0 0 1 2.416-2.756 2 2 0 0 1 .288 0Zm0 .826a1.943 1.943 0 1 0 1.757 1.76 1.94 1.94 0 0 0-1.761-1.759Zm5.793 2.6h-.938v1.988h-.938v-5.256h2.317a1.623 1.623 0 0 1 1.76 1.479 2 2 0 0 1 0 .179 1.476 1.476 0 0 1-1.28 1.546l1.325 2.1h-1.1Zm.32-2.484h-1.28v1.712h1.28a.845.845 0 0 0 .931-.746 1 1 0 0 0 0-.083.855.855 0 0 0-.823-.887 1 1 0 0 0-.1 0Zm2.826-.829h.938v3.2a1.38 1.38 0 0 0 2.759 0v-3.2h.938v3.2a2.32 2.32 0 0 1-4.635 0Zm10.485 1.271-1.655 4.03h-.387l-1.655-4.03v4.03h-.931v-5.256h1.325l1.434 3.591 1.424-3.591h1.325v5.3h-.938l.054-4.084Z" data-name="Path 147"/></g></g></g></g></svg>