<svg xmlns="http://www.w3.org/2000/svg" viewBox="0 0 299.32 65.64"><defs><clipPath id="a"><path fill="none" d="M0 65.64h299.32V0H0Z" data-name="Path 417"/></clipPath></defs><g data-name="Group 431"><g clip-path="url(#a)" data-name="Group 446"><g data-name="Group 431"><path fill="#102442" d="M32.672 55.942a23.12 23.12 0 0 1-16.455-6.816 23.12 23.12 0 0 1-6.815-16.454 23.12 23.12 0 0 1 6.815-16.454 23.12 23.12 0 0 1 16.455-6.814 23.12 23.12 0 0 1 16.454 6.814l-3.989 3.986a17.52 17.52 0 0 0-12.465-5.163 17.5 17.5 0 0 0-12.465 5.163 17.5 17.5 0 0 0-5.164 12.468 17.5 17.5 0 0 0 5.164 12.465 17.5 17.5 0 0 0 12.465 5.167 17.51 17.51 0 0 0 12.465-5.167l3.989 3.989a23.12 23.12 0 0 1-16.454 6.816" data-name="Path 402"/></g><g data-name="Group 432"><path fill="#102442" d="M32.673 65.344A32.71 32.71 0 0 1 0 32.672 32.71 32.71 0 0 1 32.673 0a32.71 32.71 0 0 1 32.671 32.672 32.71 32.71 0 0 1-32.671 32.672m0-59.7A27.06 27.06 0 0 0 5.641 32.672a27.06 27.06 0 0 0 27.032 27.03 27.06 27.06 0 0 0 27.028-27.03A27.06 27.06 0 0 0 32.672 5.641" data-name="Path 403"/></g><g data-name="Group 433"><path fill="#fff" d="M30.706 39.011s12.882-5.913 24.417 1.213 8.583 13.82 18.332 20.177c5.748 4.258 9.658 3.5 9.658 3.5a16.71 16.71 0 0 1-16.407-.849c-8.882-5.266-10.048-14.286-18.694-19.676a29.16 29.16 0 0 0-17.306-4.365" data-name="Path 404"/></g><g data-name="Group 434"><path fill="#102442" d="M259.638 43.922c-3.1 0-6.436-1.738-6.436-5.553 0-6.473 8.153-6.473 11.222-6.473h.706c-.02-2.682-1.228-3.879-3.909-3.879a7.16 7.16 0 0 0-4.923 1.891l-.389.35-2.113-2.482.325-.332c1.7-1.739 4.344-2.657 7.653-2.657 4.134 0 6.8 2.6 6.8 6.62v7.695a28 28 0 0 0 .288 3.786l.094.589h-3.377l-.074-.421a15 15 0 0 1-.176-1.492 7.03 7.03 0 0 1-5.691 2.358m4.749-9.02c-4.987 0-7.516 1.055-7.516 3.135 0 2.529 2.949 2.657 3.54 2.657 3.479 0 4.718-2.609 4.718-5.05v-.742Z" data-name="Path 405"/></g><g data-name="Group 435"><path fill="#102442" d="M275.166 43.477h-3.447V31.113c0-1.024-.032-1.938-.076-3.2-.022-.624-.047-1.326-.071-2.159l-.015-.525h3.427v1.927a6.26 6.26 0 0 1 5.086-2.369 7 7 0 0 1 1.944.24l.451.129-.69 3.44-.56-.209a3.6 3.6 0 0 0-1.222-.152 4.9 4.9 0 0 0-4.829 5.014Z" data-name="Path 406"/></g><g data-name="Group 436"><path fill="#102442" d="M290.785 43.922a9.284 9.284 0 0 1-9.418-9.566c0-5.453 3.953-9.566 9.2-9.566 5.154.032 8.753 3.786 8.753 9.121v1.611h-14.291a5.875 5.875 0 0 0 5.757 5.166 5.98 5.98 0 0 0 5.089-2.74l.307-.5 2.712 2.233-.307.391a9.51 9.51 0 0 1-7.802 3.85m-5.715-11.4h10.563c-.2-2.792-2.107-4.5-5.069-4.5a5.69 5.69 0 0 0-5.494 4.5" data-name="Path 407"/></g><g data-name="Group 437"><path fill="#102442" d="M243.899 46.473a13.67 13.67 0 0 1-13.654-13.653 13.67 13.67 0 0 1 13.654-13.653 13.52 13.52 0 0 1 8.175 2.725l.47.352-2.344 2.344-.35-.247a10.3 10.3 0 0 0-5.951-1.887 10.38 10.38 0 0 0-10.366 10.366 10.377 10.377 0 0 0 10.366 10.365 10.3 10.3 0 0 0 5.951-1.887l.35-.247 2.344 2.344-.47.352a13.52 13.52 0 0 1-8.175 2.726" data-name="Path 408"/></g><g data-name="Group 438"><path fill="#102442" d="M117.145 43.923c-4.507 0-6.988-2.574-6.988-7.246V25.233h3.448v10.044c0 3.95 1.129 5.418 4.166 5.418.192 0 4.718-.069 4.718-6.118v-9.344h3.449V39.18c0 .748.076 2 .143 3.1l.072 1.2h-3.497l-.052-.447a16 16 0 0 1-.1-1.415 7.6 7.6 0 0 1-5.36 2.306" data-name="Path 409"/></g><g data-name="Group 439"><path fill="#102442" d="M134.449 43.926c-3.1 0-6.437-1.738-6.437-5.553 0-6.473 8.153-6.473 11.222-6.473h.705c-.02-2.682-1.227-3.879-3.908-3.879a7.16 7.16 0 0 0-4.923 1.894l-.389.35-2.114-2.482.325-.332c1.7-1.738 4.346-2.657 7.654-2.657 4.133 0 6.8 2.6 6.8 6.62v7.695a27.5 27.5 0 0 0 .289 3.785l.095.59h-3.379l-.073-.421c-.078-.448-.138-.96-.177-1.493a7.02 7.02 0 0 1-5.69 2.356m4.749-9.02c-4.987 0-7.517 1.055-7.517 3.135 0 2.529 2.95 2.657 3.541 2.657 3.479 0 4.718-2.609 4.718-5.05v-.742Z" data-name="Path 410"/></g><g data-name="Group 440"><path fill="#102442" d="M162.052 43.481h-3.448V33.436c0-3.95-1.129-5.418-4.166-5.418-.193 0-4.719.07-4.719 6.118v9.345h-3.45V29.534c0-.736-.075-1.961-.14-3.042l-.075-1.26h3.495l.054.449c.057.473.085.946.1 1.416a7.6 7.6 0 0 1 5.366-2.306c4.507 0 6.988 2.573 6.988 7.246Z" data-name="Path 411"/></g><g data-name="Group 441"><path fill="#102442" d="M181.534 43.923c-4.507 0-6.988-2.574-6.988-7.246V25.233h3.448v10.044c0 3.95 1.129 5.418 4.166 5.418.192 0 4.718-.069 4.718-6.118v-9.344h3.448V39.18c0 .748.077 2 .144 3.1l.072 1.2h-3.497l-.052-.447a16 16 0 0 1-.1-1.415 7.6 7.6 0 0 1-5.359 2.305" data-name="Path 412"/></g><g data-name="Group 442"><path fill="#102442" d="M220 43.481h-3.448v-10.56c0-3.574-1.039-4.9-3.835-4.9-3.927 0-4.351 4.047-4.351 5.786v9.676h-3.449V32.921c0-3.574-1.039-4.9-3.835-4.9-.445 0-4.351.172-4.351 6.118v9.345h-3.448V29.571c0-.94-.059-1.846-.121-2.805q-.032-.494-.062-.995l-.031-.538h3.664v1.719a7.18 7.18 0 0 1 5.124-2.16 5.98 5.98 0 0 1 5.525 2.968 6.85 6.85 0 0 1 5.629-2.969c4.507 0 6.988 2.573 6.988 7.246Z" data-name="Path 413"/></g><g data-name="Group 443"><path fill="#102442" d="M93.393 46.473a13.67 13.67 0 0 1-13.654-13.654 13.67 13.67 0 0 1 13.654-13.653 13.67 13.67 0 0 1 13.653 13.653 13.67 13.67 0 0 1-13.653 13.654m0-24.019a10.377 10.377 0 0 0-10.365 10.365 10.377 10.377 0 0 0 10.365 10.366 10.377 10.377 0 0 0 10.365-10.366 10.377 10.377 0 0 0-10.365-10.365" data-name="Path 414"/></g><g data-name="Group 444"><path fill="#fff" d="M92.602 35.37s5.182-2.377 9.822.489 3.452 5.559 7.378 8.117c2.31 1.717 3.883 1.408 3.883 1.408a6.72 6.72 0 0 1-6.6-.342c-3.574-2.118-4.043-5.749-7.521-7.916a11.73 11.73 0 0 0-6.962-1.756" data-name="Path 415"/></g><g data-name="Group 445"><path fill="#102442" d="M170.821 43.923c-1.437 0-4.78-.5-4.78-5.111V28.46h-3.021v-3.227h3.021v-4.86h3.449v4.86h3.722v3.227h-3.722v9.652c0 2.393.865 2.583 1.994 2.583a4.4 4.4 0 0 0 1.011-.127l.626-.148v3.246l-.412.08a10 10 0 0 1-1.887.176" data-name="Path 416"/></g></g></g></svg>