<svg xmlns="http://www.w3.org/2000/svg" viewBox="0 0 1920 383"><defs><clipPath id="a"><path fill="#002147" stroke="#707070" d="M0 3273.033h1920v383H0z" data-name="Rectangle 269"/></clipPath><clipPath id="b"><path fill="none" stroke="#707070" d="M0 2250.058h2849.025V0H0Z" data-name="Path 2"/></clipPath><clipPath id="c"><path fill="none" stroke="#707070" d="M0 0h3018.453v2325.359H0z" data-name="Rectangle 18"/></clipPath><clipPath id="d"><path fill="none" d="M0 65.639h299.32V0H0Z" data-name="Path 434"/></clipPath></defs><g clip-path="url(#a)" data-name="Mask Group 19" transform="translate(0 -3273.033)"><g data-name="Group 673"><g fill="#002147" stroke="#707070" data-name="Rectangle 31"><path stroke="none" d="M0 3273.033h1920v383H0z"/><path fill="none" d="M.5 3273.533h1919v382H.5z"/></g><g data-name="Group 112" opacity=".608"><g clip-path="url(#b)" data-name="Group 5" transform="translate(-480.711 2149)"><g data-name="Group 4" opacity=".15"><g data-name="Group 3"><g clip-path="url(#c)" data-name="Group 2" transform="translate(-84.714 -65.889)"><g data-name="Group 1"><path fill="#fff" stroke="#707070" d="M2933.736 2256.363s-134.027 26-331.063-119.965c-234.988-153.192-254.623-311.946-382.955-477.675a1113.25 1113.25 0 0 0 104.9-472.884c0-617.539-502.431-1119.951-1119.923-1119.951-617.572 0-1119.984 502.415-1119.984 1119.95S587.123 2305.803 1204.69 2305.803c342.34 0 649.26-154.481 854.861-397.338 81.41 117.235 166.426 232.663 311.645 318.789 304.5 180.865 562.54 29.114 562.54 29.114M2131.2 1185.838a922.1 922.1 0 0 1-59.347 326.244 1120 1120 0 0 0-97.572-67.339c-395.418-244.268-836.991-41.584-836.991-41.584s297.225-35.486 593.226 149.624c88.988 55.479 154.782 122.205 211.635 193.271-169.381 222.469-436.919 366.361-737.466 366.361-510.968 0-926.614-415.665-926.614-926.576s415.651-926.596 926.619-926.596c510.883 0 926.51 415.693 926.51 926.6m-499.221-427.294 136.729-136.719c-150.66-150.679-350.962-233.652-564.018-233.652s-413.368 82.973-564.075 233.633c-150.669 150.66-233.6 350.971-233.6 564.027s82.935 413.368 233.6 564.046c150.707 150.66 351.018 233.632 564.074 233.632s413.359-82.992 564.018-233.651l-136.729-136.738c-114.166 114.139-265.888 177.007-427.288 177.007-161.437 0-313.207-62.858-427.289-177.005-114.167-114.111-177.011-265.872-177.011-427.291s62.839-313.16 177.006-427.289c114.082-114.138 265.852-177 427.289-177 161.4 0 313.123 62.867 427.289 177" data-name="Path 1"/></g></g></g></g></g></g><text fill="#efece9" data-name="Useful Links" font-family="Helvetica-Light, Helvetica" font-size="22" font-weight="300" transform="translate(554 3360.213)"><tspan x="0" y="17">Useful Links</tspan></text><text fill="#efece9" font-family="Helvetica-Light, Helvetica" font-size="22" font-weight="300" transform="translate(1106 3360.213)"><tspan x="0" y="17">Polices</tspan></text><g data-name="Group 165"><g data-name="Group 164"><path fill="#efece9" d="M272.961 3550.715h-118A15.19 15.19 0 0 1 140 3535.296v-55.763h118a15.183 15.183 0 0 1 14.958 15.4Z" data-name="Path 148"/><g data-name="Group 163"><path fill="#183169" d="M270.159 3548.252H156.533a14.374 14.374 0 0 1-14.4-14.354v-51.9h113.623a14.37 14.37 0 0 1 14.4 14.336Z" data-name="Path 145"/><path fill="#fff" d="M151.07 3528.097q3.646-.32 4.638-1.655c.663-.829 1.047-2.817 1.047-5.8v-25.503l-.839-.925a6.4 6.4 0 0 0-2.154-1.879 7.5 7.5 0 0 0-2.7-.384v-1.119h9.922l22.4 27.715v-19.215c0-3.2-.5-5.188-1.434-6.184-.608-.608-1.988-1.05-4.142-1.213v-1.1h13.635v1.1c-2.208.221-3.7.771-4.414 1.6s-1.1 2.817-1.1 5.8v30.474h-.992l-25.696-31.757v22.587c0 3.2.442 5.188 1.379 6.184.608.6 1.988 1.047 4.084 1.28v1.1H151.07Zm69.1-36.99a30 30 0 0 0 3.7.938 3 3 0 0 0 1.546-.442 2.53 2.53 0 0 0 1.047-1.434h1.207l.554 13.03h-1.325a18.2 18.2 0 0 0-3.034-6.241 11.68 11.68 0 0 0-9.656-4.481 12.34 12.34 0 0 0-9.989 4.8c-2.6 3.2-3.863 7.618-3.863 13.251 0 5.121 1.379 9.282 4.084 12.367a13.06 13.06 0 0 0 10.319 4.638 16.9 16.9 0 0 0 8.322-2.154 24 24 0 0 0 4.8-3.7l1.1 1.1a19.8 19.8 0 0 1-4.8 4.308 19.52 19.52 0 0 1-10.594 3.152c-6.235 0-11.148-1.988-14.845-5.963a19.7 19.7 0 0 1-5.057-13.788 19.91 19.91 0 0 1 5.352-14.192c3.754-4.03 8.664-6.017 14.678-6.017a19.8 19.8 0 0 1 6.454.828m11.311 36.99c2.317-.221 3.7-.663 4.3-1.28q.826-.912.829-4.638v-25.055c0-2.042-.32-3.422-.941-4.03s-2.042-1.05-4.193-1.159v-1.1h30.957l.221 8.28h-1.6c-.384-2.65-1.159-4.363-2.26-5.025-1.1-.717-3.258-1.047-6.513-1.047h-8c-.771 0-1.28.109-1.488.384a2.6 2.6 0 0 0-.32 1.546v12.918h8.443c2.484 0 4.084-.387 4.747-1.1s1.213-2.208 1.655-4.481h1.379v13.41h-1.379q-.663-3.4-1.655-4.481c-.663-.717-2.263-1.1-4.747-1.1h-8.456v12.7c0 2.151.32 3.476.992 4.084s2.1 1 4.3 1.159v1.1h-16.221Z" data-name="Path 146"/><g data-name="Group 163"><path fill="#fff" d="M151.847 3536.6h-1.6v-.829h4.138v.829h-1.6v4.526h-.938Zm7.006 2.154h-2.756v2.317h-.94v-5.251h.94v2.208h2.759v-2.208h.941v5.3h-.941Zm2.1-2.983h3.644v.829h-2.7v1.379h2.647v.829h-2.653v1.492h2.7v.826h-3.638Zm8.165 1.437v3.863h-.938v-5.251h.938l2.7 3.754v-3.754h.938v5.3h-.879Zm8.5 2.871h-2.54l-.384 1.047h-1.05l2.1-5.307h1.153l2.1 5.3h-1.05Zm-2.26-.829h1.984l-.992-2.7Zm5.131-2.65h-1.6v-.829h4.138v.829h-1.6v4.526h-.94Zm3.476-.829h.932v5.3h-.938Zm5.076-.109a2.762 2.762 0 1 1-2.7 2.817v-.058a2.625 2.625 0 0 1 2.481-2.759Zm0 .826a1.943 1.943 0 0 0 0 3.866 1.79 1.79 0 0 0 1.773-1.805v-.128a1.754 1.754 0 0 0-1.572-1.92 2 2 0 0 0-.203-.012Zm5.079.72v3.863h-.938v-5.251h.938l2.7 3.754v-3.754h.941v5.3h-.874Zm8.443 2.871h-2.543l-.384 1.047h-1.049l2.1-5.307h1.159l2.087 5.307h-1.05Zm-2.263-.829h1.984l-.992-2.7Zm4.523-3.479h.941v4.529h2.372v.826h-3.247Zm5.963 2.65a2.663 2.663 0 0 1 2.561-2.759h.186a2.5 2.5 0 0 1 2.205 1.213l-.771.387a1.63 1.63 0 0 0-1.379-.775 1.863 1.863 0 0 0-1.821 1.92v.026a1.83 1.83 0 0 0 1.725 1.92h.1a1.63 1.63 0 0 0 1.379-.775l.771.387a2.38 2.38 0 0 1-2.205 1.216 2.67 2.67 0 0 1-2.759-2.561 2 2 0 0 1 .013-.2Zm8.994 1.658h-2.54l-.387 1.047h-1.047l2.1-5.307h1.159l2.1 5.3h-1.05Zm-2.263-.829h1.988l-1-2.7Zm6.235-.166h-.938v1.988h-.938v-5.252h2.317a1.626 1.626 0 0 1 1.76 1.479 2 2 0 0 1 0 .179 1.476 1.476 0 0 1-1.28 1.546l1.325 2.1h-1.101Zm.387-2.484h-1.282v1.712h1.28a.845.845 0 0 0 .931-.746 1 1 0 0 0 0-.083.915.915 0 0 0-.938-.883Zm2.759-.829h3.642v.829h-2.7v1.379h2.66v.829h-2.65v1.492h2.7v.826h-3.653Zm7.064 0h3.642v.829h-2.707v1.379h2.637v.829h-2.65v2.317h-.938v-5.355Zm7.339-.109a2.762 2.762 0 1 1-2.7 2.817v-.058a2.593 2.593 0 0 1 2.416-2.756 2 2 0 0 1 .288 0Zm0 .826a1.943 1.943 0 1 0 1.757 1.76 1.94 1.94 0 0 0-1.761-1.759Zm5.793 2.6h-.938v1.988h-.938v-5.256h2.317a1.623 1.623 0 0 1 1.76 1.479 2 2 0 0 1 0 .179 1.476 1.476 0 0 1-1.28 1.546l1.325 2.1h-1.1Zm.32-2.484h-1.28v1.712h1.28a.845.845 0 0 0 .931-.746 1 1 0 0 0 0-.083.855.855 0 0 0-.823-.887 1 1 0 0 0-.1 0Zm2.826-.829h.938v3.2a1.38 1.38 0 0 0 2.759 0v-3.2h.938v3.2a2.32 2.32 0 0 1-4.635 0Zm10.485 1.271-1.655 4.03h-.387l-1.655-4.03v4.03h-.931v-5.256h1.325l1.434 3.591 1.424-3.591h1.325v5.3h-.938l.054-4.084Z" data-name="Path 147"/></g></g></g></g><text fill="#efece9" data-name="Advice and support About us Careers Contact us News" font-family="Helvetica-Light, Helvetica" font-size="14" font-weight="300" transform="translate(554 3407.713)"><tspan x="0" y="11">Advice and support</tspan><tspan x="0" y="41">About us</tspan><tspan x="0" y="71">Careers</tspan><tspan x="0" y="101">Contact us</tspan><tspan x="0" y="131">News</tspan></text><text fill="#efece9" data-name="Residential care Dementia care Respite care Q-Club Day Care Find a care home" font-family="Helvetica-Light, Helvetica" font-size="14" font-weight="300" transform="translate(754 3407.713)"><tspan x="0" y="11">Residential care</tspan><tspan x="0" y="41">Dementia care</tspan><tspan x="0" y="71">Respite care</tspan><tspan x="0" y="101">Q-Club Day Care</tspan><tspan x="0" y="131">Find a care home</tspan><tspan font-family="Poppins-Light, Poppins"/></text><text fill="#efece9" data-name="Gender Pay Gap Report Complaints Procedure Privacy Policy Modern Slavery Statement" font-family="Helvetica-Light, Helvetica" font-size="14" font-weight="300" transform="translate(1106 3407.713)"><tspan x="0" y="11">Gender Pay Gap Report</tspan><tspan x="0" y="41">Complaints Procedure</tspan><tspan x="0" y="71">Privacy Policy</tspan><tspan x="0" y="101">Modern Slavery Statement</tspan></text><text fill="#efece9" data-name="Follow Us" font-family="Helvetica-Light, Helvetica" font-size="22" font-weight="300" transform="translate(1522 3360.213)"><tspan x="0" y="17">Follow Us</tspan></text><path fill="#efece9" d="M1570.642 3427.846v11.388h6.211v-11.388h4.631l.964-5.236h-5.596v-1.852c0-2.768 1.087-3.828 3.892-3.828.873 0 1.574.021 1.981.064v-4.749a19.2 19.2 0 0 0-3.717-.423c-5.723 0-8.363 2.7-8.363 8.534v2.254h-3.537v5.236Z" data-name="facebook-f (3)"/><path fill="#efece9" d="M1612.284 3419.017a7.571 7.571 0 1 0 7.571 7.571 7.56 7.56 0 0 0-7.571-7.571m0 12.494a4.922 4.922 0 1 1 4.922-4.922 4.93 4.93 0 0 1-4.922 4.922m9.647-12.8a1.766 1.766 0 1 1-1.766-1.766 1.76 1.76 0 0 1 1.763 1.762Zm5.012 1.787a8.74 8.74 0 0 0-2.385-6.188 8.8 8.8 0 0 0-6.188-2.385c-2.438-.138-9.746-.138-12.184 0a8.78 8.78 0 0 0-6.188 2.379 8.77 8.77 0 0 0-2.385 6.194c-.138 2.438-.138 9.746 0 12.184a8.74 8.74 0 0 0 2.385 6.188 8.8 8.8 0 0 0 6.186 2.38c2.438.138 9.746.138 12.184 0a8.74 8.74 0 0 0 6.188-2.385 8.8 8.8 0 0 0 2.385-6.188c.138-2.438.138-9.739 0-12.177Zm-3.15 14.8a4.98 4.98 0 0 1-2.809 2.8c-1.944.771-6.557.593-8.7.593s-6.767.171-8.7-.593a4.98 4.98 0 0 1-2.815-2.8c-.771-1.944-.593-6.557-.593-8.7s-.171-6.767.593-8.7a4.98 4.98 0 0 1 2.807-2.807c1.944-.771 6.557-.593 8.7-.593s6.767-.171 8.7.593a4.98 4.98 0 0 1 2.807 2.807c.771 1.944.593 6.557.593 8.7s.188 6.758-.583 8.7" data-name="instagram (4)"/><path fill="#efece9" d="M1648.439 3439.234h-6.121v-19.709h6.121Zm-3.064-22.398a3.562 3.562 0 1 1 3.545-3.578 3.575 3.575 0 0 1-3.545 3.578m25.969 22.4h-6.108v-9.596c0-2.287-.046-5.219-3.183-5.219-3.183 0-3.67 2.484-3.67 5.054v9.759h-6.115v-19.709h5.871v2.688h.086a6.43 6.43 0 0 1 5.792-3.183c6.194 0 7.334 4.079 7.334 9.377v10.827Z" data-name="linkedin-in (2)"/><path fill="#efece9" d="M1545.88 3411.822h4.652l-10.16 11.611 11.953 15.8h-9.357l-7.334-9.581-8.382 9.581h-4.659l10.866-12.42-11.459-14.991h9.594l6.622 8.757Zm-1.634 24.632h2.576l-16.632-22h-2.767Z" data-name="x-twitter (2)"/><text fill="#efece9" data-name="©2024 Quantum Care." font-family="Helvetica-Light, Helvetica" font-size="14" font-weight="300" transform="translate(1520 3467.533)"><tspan x="0" y="11">©2024 Quantum Care.</tspan></text><g data-name="Group 447"><g clip-path="url(#d)" data-name="Group 462" transform="translate(140 3360.213)"><g data-name="Group 447"><path fill="#79a2cd" d="M32.672 55.941a23.27 23.27 0 0 1-23.274-23.27A23.27 23.27 0 0 1 32.672 9.399a23.12 23.12 0 0 1 16.453 6.817l-3.987 3.99a17.627 17.627 0 0 0-24.931 0 17.5 17.5 0 0 0-5.165 12.465 17.626 17.626 0 0 0 17.63 17.627 17.52 17.52 0 0 0 12.466-5.161l3.987 3.987a23.12 23.12 0 0 1-16.453 6.817" data-name="Path 419"/></g><g data-name="Group 448"><path fill="#79a2cd" d="M32.673 65.342a32.673 32.673 0 1 1 32.67-32.672 32.71 32.71 0 0 1-32.67 32.672m0-59.7a27.03 27.03 0 1 0 27.03 27.03 27.064 27.064 0 0 0-27.03-27.03" data-name="Path 420"/></g><g data-name="Group 449"><path fill="#fff" d="M30.707 39.01s12.883-5.914 24.418 1.212S63.702 54.043 73.457 60.4c5.748 4.258 9.659 3.5 9.659 3.5a16.71 16.71 0 0 1-16.409-.849c-8.881-5.266-10.048-14.287-18.7-19.677a29.15 29.15 0 0 0-17.3-4.364" data-name="Path 421"/></g><g data-name="Group 450"><path fill="#79a2cd" d="M259.639 43.917c-3.1 0-6.437-1.738-6.437-5.553 0-6.472 8.153-6.472 11.225-6.472h.7c-.014-2.683-1.223-3.879-3.907-3.879a7.16 7.16 0 0 0-4.921 1.895l-.389.347-2.115-2.481.325-.332c1.7-1.738 4.345-2.659 7.653-2.659 4.134 0 6.807 2.6 6.807 6.624v7.694a27.5 27.5 0 0 0 .287 3.786l.093.587h-3.382l-.073-.421c-.077-.447-.137-.96-.175-1.493a7.03 7.03 0 0 1-5.691 2.357m4.75-9.021c-4.989.001-7.519 1.056-7.519 3.136 0 2.529 2.951 2.657 3.541 2.657 3.48 0 4.721-2.609 4.721-5.049v-.743Z" data-name="Path 422"/></g><g data-name="Group 451"><path fill="#79a2cd" d="M275.167 43.476h-3.448V31.112c0-1.024-.032-1.936-.077-3.2-.022-.622-.045-1.324-.07-2.156l-.016-.526h3.426v1.927a6.27 6.27 0 0 1 5.087-2.37 7 7 0 0 1 1.946.239l.45.131-.686 3.439-.561-.211a3.7 3.7 0 0 0-1.222-.15 4.9 4.9 0 0 0-4.829 5.011Z" data-name="Path 423"/></g><g data-name="Group 452"><path fill="#79a2cd" d="M290.786 43.917a9.286 9.286 0 0 1-9.419-9.566c0-5.454 3.953-9.568 9.199-9.568 5.154.04 8.754 3.791 8.754 9.128v1.611h-14.291a5.88 5.88 0 0 0 5.757 5.167 5.98 5.98 0 0 0 5.088-2.74l.309-.494 2.712 2.228-.309.389a9.5 9.5 0 0 1-7.8 3.84m-5.716-11.395h10.565c-.2-2.794-2.108-4.5-5.069-4.5a5.69 5.69 0 0 0-5.5 4.5" data-name="Path 424"/></g><g data-name="Group 453"><path fill="#79a2cd" d="M243.899 46.473a13.654 13.654 0 1 1 0-27.308 13.52 13.52 0 0 1 8.176 2.727l.469.351-2.345 2.345-.348-.249a10.3 10.3 0 0 0-5.952-1.885 10.365 10.365 0 1 0 0 20.73 10.3 10.3 0 0 0 5.952-1.885l.348-.249 2.344 2.344-.469.354a13.5 13.5 0 0 1-8.175 2.724" data-name="Path 425"/></g><g data-name="Group 454"><path fill="#79a2cd" d="M117.148 43.922c-4.507 0-6.989-2.574-6.989-7.247V25.233h3.446v10.045c0 3.948 1.129 5.414 4.166 5.414.195 0 4.721-.07 4.721-6.118v-9.341h3.448v13.946c0 .75.073 2 .144 3.1l.07 1.2h-3.5l-.054-.447a18 18 0 0 1-.1-1.416 7.6 7.6 0 0 1-5.352 2.306" data-name="Path 426"/></g><g data-name="Group 455"><path fill="#79a2cd" d="M134.449 43.922c-3.1 0-6.437-1.738-6.437-5.553 0-6.472 8.153-6.472 11.222-6.472h.7c-.015-2.683-1.22-3.879-3.904-3.879a7.15 7.15 0 0 0-4.921 1.895l-.389.347-2.115-2.481.325-.332c1.7-1.738 4.345-2.659 7.653-2.659 4.134 0 6.8 2.6 6.8 6.622v7.696a27.4 27.4 0 0 0 .29 3.786l.1.587h-3.385l-.073-.421c-.077-.447-.137-.96-.175-1.493a7.03 7.03 0 0 1-5.691 2.357m4.75-9.021c-4.989.001-7.519 1.056-7.519 3.136 0 2.529 2.951 2.657 3.541 2.657 3.48 0 4.721-2.609 4.721-5.049v-.743Z" data-name="Path 427"/></g><g data-name="Group 456"><path fill="#79a2cd" d="M162.054 43.48h-3.448V33.435c0-3.949-1.129-5.419-4.166-5.419-.195 0-4.721.07-4.721 6.118v9.346h-3.447V29.534c0-.737-.073-1.962-.137-3.043l-.077-1.26h3.5l.054.45c.054.472.083.944.1 1.416a7.6 7.6 0 0 1 5.353-2.306c4.507 0 6.989 2.571 6.989 7.244Z" data-name="Path 428"/></g><g data-name="Group 457"><path fill="#79a2cd" d="M181.537 43.922c-4.507 0-6.989-2.574-6.989-7.247V25.233h3.446v10.045c0 3.948 1.129 5.414 4.166 5.414.195 0 4.721-.07 4.721-6.118v-9.341h3.445v13.946c0 .75.077 2 .144 3.1l.073 1.2h-3.5l-.054-.447a18 18 0 0 1-.1-1.416 7.6 7.6 0 0 1-5.352 2.306" data-name="Path 429"/></g><g data-name="Group 458"><path fill="#79a2cd" d="M220 43.48h-3.448V32.922c0-3.576-1.04-4.906-3.834-4.906-3.927 0-4.351 4.048-4.351 5.786v9.678h-3.448V32.922c0-3.576-1.04-4.906-3.837-4.906-.443 0-4.348.172-4.348 6.118v9.346h-3.448V29.569c0-.938-.061-1.844-.121-2.8-.022-.332-.045-.66-.064-1l-.032-.539h3.665v1.72a7.18 7.18 0 0 1 5.123-2.159 5.98 5.98 0 0 1 5.524 2.966 6.85 6.85 0 0 1 5.631-2.966c4.507 0 6.989 2.571 6.989 7.244Z" data-name="Path 430"/></g><g data-name="Group 459"><path fill="#79a2cd" d="M93.393 46.473a13.654 13.654 0 1 1 13.652-13.653 13.67 13.67 0 0 1-13.652 13.653m0-24.019a10.365 10.365 0 1 0 10.364 10.366 10.38 10.38 0 0 0-10.364-10.366" data-name="Path 431"/></g><g data-name="Group 460"><path fill="#fff" d="M92.603 35.369s5.183-2.38 9.821.488 3.455 5.56 7.378 8.118c2.309 1.713 3.885 1.407 3.885 1.407a6.72 6.72 0 0 1-6.6-.341c-3.575-2.119-4.044-5.749-7.521-7.914a11.7 11.7 0 0 0-6.963-1.758" data-name="Path 432"/></g><g data-name="Group 461"><path fill="#79a2cd" d="M170.822 43.922c-1.439 0-4.781-.5-4.781-5.11V28.455h-3.018v-3.222h3.018v-4.861h3.451v4.861h3.722v3.222h-3.722v9.652c0 2.4.864 2.584 1.994 2.584a4.3 4.3 0 0 0 1.011-.128l.625-.147v3.247l-.411.08a10 10 0 0 1-1.888.175" data-name="Path 433"/></g></g></g></g></g></svg>