<svg xmlns="http://www.w3.org/2000/svg" xmlns:xlink="http://www.w3.org/1999/xlink" width="299.32" height="65.639" viewBox="0 0 299.32 65.639">
  <defs>
    <clipPath id="clip-path">
      <path id="Path_434" data-name="Path 434" d="M0,45.061H299.32V-20.578H0Z" transform="translate(0 20.578)" fill="none"/>
    </clipPath>
  </defs>
  <g id="Group_447" data-name="Group 447" transform="translate(0 20.578)">
    <g id="Group_462" data-name="Group 462" transform="translate(0 -20.578)" clip-path="url(#clip-path)">
      <g id="Group_447-2" data-name="Group 447" transform="translate(9.403 9.399)">
        <path id="Path_419" data-name="Path 419" d="M15.974,31.951A23.268,23.268,0,0,1-7.3,8.681,23.268,23.268,0,0,1,15.974-14.591h0A23.117,23.117,0,0,1,32.427-7.774L28.44-3.784a17.627,17.627,0,0,0-24.931,0A17.509,17.509,0,0,0-1.656,8.681a17.626,17.626,0,0,0,17.63,17.627A17.525,17.525,0,0,0,28.44,21.147l3.987,3.987a23.117,23.117,0,0,1-16.453,6.817" transform="translate(7.295 14.591)" fill="#79a2cd"/>
      </g>
      <g id="Group_448" data-name="Group 448" transform="translate(0 -0.003)">
        <path id="Path_420" data-name="Path 420" d="M22.43,44.859A32.673,32.673,0,1,1,55.1,12.187,32.71,32.71,0,0,1,22.43,44.859m0-59.7a27.03,27.03,0,1,0,27.03,27.03,27.064,27.064,0,0,0-27.03-27.03" transform="translate(10.243 20.486)" fill="#79a2cd"/>
      </g>
      <g id="Group_449" data-name="Group 449" transform="translate(30.707 36.707)">
        <path id="Path_421" data-name="Path 421" d="M0,1.581S12.883-4.333,24.418,2.793s8.577,13.821,18.332,20.178c5.748,4.258,9.659,3.5,9.659,3.5A16.712,16.712,0,0,1,36,25.622C27.119,20.356,25.952,11.335,17.3,5.945A29.147,29.147,0,0,0,0,1.581" transform="translate(0 0.722)" fill="#fff"/>
      </g>
      <g id="Group_450" data-name="Group 450" transform="translate(253.202 24.785)">
        <path id="Path_422" data-name="Path 422" d="M4.419,13.134c-3.1,0-6.437-1.738-6.437-5.553,0-6.472,8.153-6.472,11.225-6.472h.7C9.893-1.574,8.684-2.77,6-2.77A7.158,7.158,0,0,0,1.079-.875L.69-.528-1.425-3.009l.325-.332C.6-5.079,3.245-6,6.553-6,10.687-6,13.36-3.4,13.36.624V8.318a27.526,27.526,0,0,0,.287,3.786l.093.587H10.358l-.073-.421c-.077-.447-.137-.96-.175-1.493a7.026,7.026,0,0,1-5.691,2.357m4.75-9.021C4.18,4.114,1.65,5.169,1.65,7.249c0,2.529,2.951,2.657,3.541,2.657,3.48,0,4.721-2.609,4.721-5.049V4.114Z" transform="translate(2.018 5.998)" fill="#79a2cd"/>
      </g>
      <g id="Group_451" data-name="Group 451" transform="translate(271.556 24.787)">
        <path id="Path_423" data-name="Path 423" d="M2.479,12.83H-.969V.466c0-1.024-.032-1.936-.077-3.2-.022-.622-.045-1.324-.07-2.156l-.016-.526H2.294v1.927A6.271,6.271,0,0,1,7.381-5.859a7.015,7.015,0,0,1,1.946.239l.45.131L9.091-2.05,8.53-2.261a3.7,3.7,0,0,0-1.222-.15A4.9,4.9,0,0,0,2.479,2.6Z" transform="translate(1.132 5.859)" fill="#79a2cd"/>
      </g>
      <g id="Group_452" data-name="Group 452" transform="translate(281.367 24.785)">
        <path id="Path_424" data-name="Path 424" d="M6.466,13.134A9.286,9.286,0,0,1-2.953,3.568C-2.953-1.886,1-6,6.246-6,11.4-5.96,15-2.209,15,3.128V4.739H.709A5.877,5.877,0,0,0,6.466,9.906a5.979,5.979,0,0,0,5.088-2.74l.309-.494L14.575,8.9l-.309.389a9.506,9.506,0,0,1-7.8,3.84M.75,1.734H11.315c-.2-2.794-2.108-4.5-5.069-4.5a5.69,5.69,0,0,0-5.5,4.5" transform="translate(2.953 5.998)" fill="#79a2cd"/>
      </g>
      <g id="Group_453" data-name="Group 453" transform="translate(230.244 19.165)">
        <path id="Path_425" data-name="Path 425" d="M9.374,18.747a13.654,13.654,0,1,1,0-27.308A13.52,13.52,0,0,1,17.55-5.834l.469.351L15.674-3.138l-.348-.249A10.289,10.289,0,0,0,9.374-5.272a10.365,10.365,0,1,0,0,20.73,10.289,10.289,0,0,0,5.952-1.885l.348-.249,2.344,2.344-.469.354a13.517,13.517,0,0,1-8.175,2.724" transform="translate(4.281 8.561)" fill="#79a2cd"/>
      </g>
      <g id="Group_454" data-name="Group 454" transform="translate(110.157 25.233)">
        <path id="Path_426" data-name="Path 426" d="M4.8,12.83c-4.507,0-6.989-2.574-6.989-7.247V-5.859H1.257V4.186C1.257,8.134,2.386,9.6,5.423,9.6c.195,0,4.721-.07,4.721-6.118V-5.859h3.448V8.087c0,.75.073,2,.144,3.1l.07,1.2h-3.5l-.054-.447c-.054-.472-.083-.947-.1-1.416A7.6,7.6,0,0,1,4.8,12.83" transform="translate(2.191 5.859)" fill="#79a2cd"/>
      </g>
      <g id="Group_455" data-name="Group 455" transform="translate(128.012 24.79)">
        <path id="Path_427" data-name="Path 427" d="M4.419,13.134c-3.1,0-6.437-1.738-6.437-5.553,0-6.472,8.153-6.472,11.222-6.472h.7C9.889-1.574,8.684-2.77,6-2.77A7.152,7.152,0,0,0,1.079-.875L.69-.528-1.425-3.009l.325-.332C.6-5.079,3.245-6,6.553-6c4.134,0,6.8,2.6,6.8,6.622V8.318a27.437,27.437,0,0,0,.29,3.786l.1.587H10.358l-.073-.421c-.077-.447-.137-.96-.175-1.493a7.026,7.026,0,0,1-5.691,2.357m4.75-9.021C4.18,4.114,1.65,5.169,1.65,7.249c0,2.529,2.951,2.657,3.541,2.657,3.48,0,4.721-2.609,4.721-5.049V4.114Z" transform="translate(2.018 5.998)" fill="#79a2cd"/>
      </g>
      <g id="Group_456" data-name="Group 456" transform="translate(146.057 24.791)">
        <path id="Path_428" data-name="Path 428" d="M10.982,12.83H7.534V2.785c0-3.949-1.129-5.419-4.166-5.419-.195,0-4.721.07-4.721,6.118V12.83H-4.8V-1.116c0-.737-.073-1.962-.137-3.043l-.077-1.26h3.5l.054.45c.054.472.083.944.1,1.416A7.6,7.6,0,0,1,3.993-5.859c4.507,0,6.989,2.571,6.989,7.244Z" transform="translate(5.015 5.859)" fill="#79a2cd"/>
      </g>
      <g id="Group_457" data-name="Group 457" transform="translate(174.546 25.233)">
        <path id="Path_429" data-name="Path 429" d="M4.8,12.83c-4.507,0-6.989-2.574-6.989-7.247V-5.859H1.257V4.186C1.257,8.134,2.386,9.6,5.423,9.6c.195,0,4.721-.07,4.721-6.118V-5.859h3.445V8.087c0,.75.077,2,.144,3.1l.073,1.2h-3.5l-.054-.447c-.054-.472-.083-.947-.1-1.416A7.611,7.611,0,0,1,4.8,12.83" transform="translate(2.191 5.859)" fill="#79a2cd"/>
      </g>
      <g id="Group_458" data-name="Group 458" transform="translate(193.069 24.791)">
        <path id="Path_430" data-name="Path 430" d="M18.488,12.83H15.04V2.272c0-3.576-1.04-4.906-3.834-4.906-3.927,0-4.351,4.048-4.351,5.786V12.83H3.407V2.272c0-3.576-1.04-4.906-3.837-4.906-.443,0-4.348.172-4.348,6.118V12.83H-8.226V-1.081c0-.938-.061-1.844-.121-2.8-.022-.332-.045-.66-.064-1l-.032-.539h3.665V-3.7A7.175,7.175,0,0,1,.345-5.859,5.983,5.983,0,0,1,5.869-2.893,6.848,6.848,0,0,1,11.5-5.859c4.507,0,6.989,2.571,6.989,7.244Z" transform="translate(8.443 5.859)" fill="#79a2cd"/>
      </g>
      <g id="Group_459" data-name="Group 459" transform="translate(79.738 19.165)">
        <path id="Path_431" data-name="Path 431" d="M9.374,18.747A13.654,13.654,0,1,1,23.026,5.094,13.67,13.67,0,0,1,9.374,18.747m0-24.019A10.365,10.365,0,1,0,19.738,5.094,10.379,10.379,0,0,0,9.374-5.272" transform="translate(4.281 8.561)" fill="#79a2cd"/>
      </g>
      <g id="Group_460" data-name="Group 460" transform="translate(92.603 34.443)">
        <path id="Path_432" data-name="Path 432" d="M0,.636s5.183-2.38,9.821.488,3.455,5.56,7.378,8.118c2.309,1.713,3.885,1.407,3.885,1.407a6.719,6.719,0,0,1-6.6-.341C10.909,8.189,10.44,4.559,6.963,2.394A11.716,11.716,0,0,0,0,.636" transform="translate(0 0.29)" fill="#fff"/>
      </g>
      <g id="Group_461" data-name="Group 461" transform="translate(163.023 20.372)">
        <path id="Path_433" data-name="Path 433" d="M5.354,16.167c-1.439,0-4.781-.5-4.781-5.11V.7H-2.445V-2.522H.573V-7.383H4.024v4.861H7.746V.7H4.024v9.652c0,2.4.864,2.584,1.994,2.584a4.323,4.323,0,0,0,1.011-.128l.625-.147v3.247l-.411.08a10.166,10.166,0,0,1-1.888.175" transform="translate(2.445 7.383)" fill="#79a2cd"/>
      </g>
    </g>
  </g>
</svg>
