<svg xmlns="http://www.w3.org/2000/svg" viewBox="0 0 341.5 74.89"><defs><clipPath id="a"><path fill="none" d="M0 74.889h341.5V-.001H0Z" data-name="Path 138"/></clipPath></defs><g data-name="Group 640"><g clip-path="url(#a)" data-name="Group 150"><g data-name="Group 134"><path fill="#c09270" d="M37.278 63.829a26.38 26.38 0 0 1-18.776-7.78 26.38 26.38 0 0 1-7.775-18.773 26.37 26.37 0 0 1 7.775-18.773 26.38 26.38 0 0 1 18.776-7.774 26.37 26.37 0 0 1 18.771 7.775l-4.551 4.55a19.98 19.98 0 0 0-14.22-5.891 19.98 19.98 0 0 0-14.221 5.891 19.98 19.98 0 0 0-5.891 14.222 19.97 19.97 0 0 0 5.891 14.221 19.97 19.97 0 0 0 14.221 5.892 19.98 19.98 0 0 0 14.22-5.891l4.551 4.551a26.38 26.38 0 0 1-18.771 7.78" data-name="Path 122"/></g><g data-name="Group 135"><path fill="#c09270" d="M37.277 74.552A37.32 37.32 0 0 1 0 37.276 37.32 37.32 0 0 1 37.277 0a37.32 37.32 0 0 1 37.275 37.276 37.32 37.32 0 0 1-37.275 37.276m0-68.116a30.875 30.875 0 0 0-30.841 30.84 30.875 30.875 0 0 0 30.841 30.841A30.873 30.873 0 0 0 68.11 37.276a30.874 30.874 0 0 0-30.837-30.84" data-name="Path 123"/></g><g data-name="Group 136"><path fill="#a6b4b7" d="M35.034 44.508s14.7-6.746 27.858 1.385 9.788 15.767 20.915 23.02c6.558 4.858 11.019 3.993 11.019 3.993s-8.589 5.051-18.724-.969-11.459-16.299-21.324-22.449a33.27 33.27 0 0 0-19.744-4.98" data-name="Path 124"/></g><g data-name="Group 137"><path fill="#c09270" d="M296.226 41.691c-3.536 0-7.343-1.983-7.343-6.335 0-7.385 9.3-7.385 12.8-7.385h.805c-.022-3.06-1.4-4.425-4.46-4.425a8.17 8.17 0 0 0-5.617 2.161l-.444.4-2.411-2.832.37-.379c1.937-1.984 4.956-3.032 8.732-3.032 4.717 0 7.763 2.965 7.763 7.553v8.781a31.5 31.5 0 0 0 .329 4.319l.108.672h-3.854l-.085-.481a17 17 0 0 1-.2-1.7 8.02 8.02 0 0 1-6.492 2.687m5.417-10.297c-5.69 0-8.575 1.2-8.575 3.577 0 2.885 3.365 3.031 4.039 3.031 3.969 0 5.383-2.976 5.383-5.762v-.846Z" data-name="Path 125"/></g><g data-name="Group 138"><path fill="#c09270" d="M313.942 41.186h-3.934V27.081c0-1.168-.037-2.211-.087-3.653-.025-.712-.053-1.513-.081-2.463l-.018-.6h3.91v2.2a7.15 7.15 0 0 1 5.8-2.7 8 8 0 0 1 2.218.274l.514.147-.783 3.925-.639-.24a4.1 4.1 0 0 0-1.394-.174 5.59 5.59 0 0 0-5.51 5.72Z" data-name="Path 126"/></g><g data-name="Group 139"><path fill="#c09270" d="M331.763 41.691a10.593 10.593 0 0 1-10.746-10.914c0-6.222 4.511-10.914 10.493-10.914 5.883.042 9.989 4.323 9.989 10.41v1.841h-16.3a6.7 6.7 0 0 0 6.564 5.894 6.82 6.82 0 0 0 5.806-3.127l.35-.565 3.094 2.548-.35.446a10.86 10.86 0 0 1-8.9 4.38m-6.521-13.007h12.052c-.233-3.186-2.4-5.139-5.783-5.139a6.49 6.49 0 0 0-6.268 5.139" data-name="Path 127"/></g><g data-name="Group 140"><path fill="#c09270" d="M278.269 44.605a15.6 15.6 0 0 1-15.578-15.58 15.594 15.594 0 0 1 15.578-15.574 15.43 15.43 0 0 1 9.327 3.109l.536.4-2.674 2.675-.4-.281a11.73 11.73 0 0 0-6.79-2.153 11.84 11.84 0 0 0-11.825 11.824 11.84 11.84 0 0 0 11.826 11.829 11.73 11.73 0 0 0 6.79-2.153l.4-.281 2.675 2.674-.536.4a15.43 15.43 0 0 1-9.327 3.11" data-name="Path 128"/></g><g data-name="Group 141"><path fill="#c09270" d="M133.653 41.695c-5.142 0-7.973-2.936-7.973-8.267V20.372h3.934v11.46c0 4.506 1.288 6.181 4.753 6.181.219 0 5.383-.079 5.383-6.98V20.372h3.935v15.912c0 .854.087 2.277.164 3.533l.082 1.374h-3.988l-.064-.512a17 17 0 0 1-.113-1.615 8.68 8.68 0 0 1-6.115 2.631" data-name="Path 129"/></g><g data-name="Group 142"><path fill="#c09270" d="M153.395 41.696c-3.537 0-7.344-1.983-7.344-6.335 0-7.385 9.3-7.385 12.8-7.385h.8c-.022-3.06-1.4-4.425-4.459-4.425a8.16 8.16 0 0 0-5.617 2.161l-.444.4-2.411-2.832.37-.379c1.938-1.983 4.958-3.031 8.733-3.031 4.716 0 7.763 2.965 7.763 7.553v8.78a31 31 0 0 0 .329 4.318l.108.673h-3.851l-.083-.481c-.089-.512-.158-1.1-.2-1.7a8.01 8.01 0 0 1-6.492 2.689m5.411-10.299c-5.69 0-8.576 1.2-8.576 3.577 0 2.885 3.365 3.031 4.04 3.031 3.969 0 5.383-2.976 5.383-5.762v-.846Z" data-name="Path 130"/></g><g data-name="Group 143"><path fill="#c09270" d="M184.889 41.191h-3.938v-11.46c0-4.506-1.288-6.182-4.753-6.182-.22 0-5.384.08-5.384 6.98v10.662h-3.934V25.279c0-.84-.085-2.237-.159-3.47l-.086-1.437h3.987l.062.512c.065.539.1 1.079.114 1.615a8.68 8.68 0 0 1 6.118-2.631c5.142 0 7.973 2.936 7.973 8.267Z" data-name="Path 131"/></g><g data-name="Group 144"><path fill="#c09270" d="M207.116 41.695c-5.142 0-7.973-2.936-7.973-8.267V20.372h3.934v11.46c0 4.506 1.288 6.181 4.753 6.181.219 0 5.383-.079 5.383-6.98V20.372h3.934v15.912c0 .854.088 2.277.164 3.533l.082 1.374h-3.988l-.063-.512c-.065-.539-.1-1.079-.114-1.615a8.68 8.68 0 0 1-6.114 2.631" data-name="Path 132"/></g><g data-name="Group 145"><path fill="#c09270" d="M251.002 41.191h-3.934V29.144c0-4.078-1.186-5.594-4.375-5.594-4.48 0-4.964 4.617-4.964 6.6v11.04h-3.935V29.144c0-4.078-1.186-5.594-4.375-5.594-.508 0-4.964.2-4.964 6.98v10.662h-3.934v-15.87c0-1.072-.067-2.106-.138-3.2q-.037-.564-.071-1.135l-.035-.614h4.178v1.961a8.2 8.2 0 0 1 5.846-2.466 6.82 6.82 0 0 1 6.3 3.386 7.82 7.82 0 0 1 6.427-3.386c5.142 0 7.973 2.936 7.973 8.267Z" data-name="Path 133"/></g><g data-name="Group 146"><path fill="#c09270" d="M106.554 44.606a15.6 15.6 0 0 1-15.578-15.58 15.6 15.6 0 0 1 15.578-15.575 15.6 15.6 0 0 1 15.577 15.575 15.6 15.6 0 0 1-15.577 15.58m0-27.4a11.84 11.84 0 0 0-11.827 11.82 11.84 11.84 0 0 0 11.827 11.828 11.84 11.84 0 0 0 11.825-11.828 11.84 11.84 0 0 0-11.825-11.824" data-name="Path 134"/></g><g data-name="Group 147"><path fill="#a6b4b7" d="M105.652 31.939s5.913-2.713 11.207.558 3.938 6.342 8.415 9.261c2.638 1.954 4.433 1.606 4.433 1.606a7.67 7.67 0 0 1-7.531-.39c-4.076-2.416-4.611-6.558-8.58-9.031a13.38 13.38 0 0 0-7.944-2.004" data-name="Path 135"/></g><g data-name="Group 148"><path fill="#c09270" d="M194.894 41.696c-1.64 0-5.453-.568-5.453-5.831V24.054h-3.446v-3.682h3.446v-5.545h3.935v5.545h4.247v3.682h-4.248v11.013c0 2.73.986 2.947 2.275 2.947a5 5 0 0 0 1.153-.144l.714-.169v3.7l-.471.091a11.4 11.4 0 0 1-2.153.2" data-name="Path 136"/></g><g data-name="Group 149"><path fill="#a6b4b7" d="M268.734 74.551a6.4 6.4 0 0 0 2.719-.549 4.5 4.5 0 0 0 1.842-1.497 3.7 3.7 0 0 0 .659-2.156 3.24 3.24 0 0 0-.714-2.115 4.5 4.5 0 0 0-1.645-1.209 20 20 0 0 0-2.582-.852q-1.346-.384-2.143-.7a3.7 3.7 0 0 1-1.333-.879 2 2 0 0 1-.542-1.443 2.07 2.07 0 0 1 .907-1.7 3.8 3.8 0 0 1 2.362-.687 3.87 3.87 0 0 1 2.6.81 2.92 2.92 0 0 1 1.031 2.127h1.921a4.44 4.44 0 0 0-1.593-3.365 5.94 5.94 0 0 0-3.9-1.223 6.6 6.6 0 0 0-2.747.55 4.5 4.5 0 0 0-1.868 1.483 3.46 3.46 0 0 0-.659 2.033 3.5 3.5 0 0 0 .728 2.321 4.6 4.6 0 0 0 1.772 1.3 21 21 0 0 0 2.72.879 19 19 0 0 1 2.047.619 3.5 3.5 0 0 1 1.25.783 1.7 1.7 0 0 1 .494 1.263 2.3 2.3 0 0 1-.895 1.845 3.73 3.73 0 0 1-2.459.742 4.67 4.67 0 0 1-2.843-.783 2.83 2.83 0 0 1-1.195-2.047h-1.973a4.35 4.35 0 0 0 1.827 3.255 6.97 6.97 0 0 0 4.216 1.195m22.415-8.488a7.2 7.2 0 0 0-.866-3.5 6.46 6.46 0 0 0-2.472-2.514 7.33 7.33 0 0 0-3.75-.934 7.7 7.7 0 0 0-3.818.934 6.5 6.5 0 0 0-2.61 2.692 8.6 8.6 0 0 0-.942 4.092 8.4 8.4 0 0 0 .948 4.079 6.7 6.7 0 0 0 2.623 2.692 7.56 7.56 0 0 0 3.791.948 7.18 7.18 0 0 0 4.519-1.387 6.36 6.36 0 0 0 2.349-3.585h-2.03a4.26 4.26 0 0 1-1.688 2.439 5.3 5.3 0 0 1-3.145.907 5.7 5.7 0 0 1-2.637-.618 4.85 4.85 0 0 1-1.951-1.827 6.04 6.04 0 0 1-.824-2.912h12.445q.054-.521.055-1.511m-1.955-.05H278.65a5.48 5.48 0 0 1 1.676-3.873 5.24 5.24 0 0 1 3.653-1.374 5.8 5.8 0 0 1 2.637.6 4.55 4.55 0 0 1 1.909 1.786 5.33 5.33 0 0 1 .673 2.857m5.466 8.323h1.923V54.004h-1.922Zm19.861-8.264a7.2 7.2 0 0 0-.866-3.5 6.45 6.45 0 0 0-2.472-2.514 7.33 7.33 0 0 0-3.75-.934 7.7 7.7 0 0 0-3.818.934 6.5 6.5 0 0 0-2.61 2.692 8.6 8.6 0 0 0-.934 4.093 8.4 8.4 0 0 0 .948 4.079 6.7 6.7 0 0 0 2.623 2.692 7.56 7.56 0 0 0 3.79.948 7.18 7.18 0 0 0 4.519-1.387 6.36 6.36 0 0 0 2.35-3.587h-2.032a4.26 4.26 0 0 1-1.69 2.44 5.3 5.3 0 0 1-3.145.907 5.7 5.7 0 0 1-2.637-.618 4.85 4.85 0 0 1-1.951-1.827 6.04 6.04 0 0 1-.824-2.912h12.444q.054-.521.055-1.511m-1.951-.055h-10.548a5.48 5.48 0 0 1 1.676-3.873 5.24 5.24 0 0 1 3.653-1.374 5.8 5.8 0 0 1 2.637.6 4.55 4.55 0 0 1 1.909 1.786 5.33 5.33 0 0 1 .673 2.857m4.587.825a8.5 8.5 0 0 0 .934 4.079 6.66 6.66 0 0 0 2.582 2.692 7.4 7.4 0 0 0 3.763.948 7.24 7.24 0 0 0 4.56-1.4 6.3 6.3 0 0 0 2.335-3.708h-2.06a4.23 4.23 0 0 1-1.662 2.568 5.3 5.3 0 0 1-3.173.92 5.4 5.4 0 0 1-2.72-.687 4.8 4.8 0 0 1-1.909-2.06 7.3 7.3 0 0 1-.7-3.351 7.2 7.2 0 0 1 .7-3.337 4.8 4.8 0 0 1 1.909-2.047 5.4 5.4 0 0 1 2.72-.687 5.3 5.3 0 0 1 3.173.92 4.22 4.22 0 0 1 1.663 2.545h2.06a6.22 6.22 0 0 0-2.321-3.736 7.32 7.32 0 0 0-4.573-1.374 7.4 7.4 0 0 0-3.763.948 6.66 6.66 0 0 0-2.584 2.696 8.5 8.5 0 0 0-.934 4.079m24.334-5.878v-1.621h-4.12V55.57h-1.946v3.763h-2.088v1.621h2.088v9.312a4.18 4.18 0 0 0 .989 3.118 4.23 4.23 0 0 0 3.022.948h2.055v-1.648h-1.753a2.57 2.57 0 0 1-1.841-.522 2.67 2.67 0 0 1-.522-1.9V60.95Z" data-name="Path 137"/></g></g></g></svg>