<svg xmlns="http://www.w3.org/2000/svg" width="745.767" height="588.98" viewBox="0 0 745.767 588.98">
  <g id="Group_730" data-name="Group 730" transform="translate(3992.767 21451.98)">
    <g id="Group_728" data-name="Group 728" transform="translate(-3992.767 -21451.98)">
      <path id="Path_140" data-name="Path 140" d="M140.169,280.332C-21.487,280.332-153,148.819-153-12.832s131.512-293.16,293.168-293.16c161.636,0,293.152,131.512,293.152,293.16S301.8,280.332,140.169,280.332m0-535.709c-133.75,0-242.553,108.81-242.553,242.545S6.418,229.711,140.169,229.711c133.731,0,242.528-108.8,242.528-242.543S273.9-255.377,140.169-255.377" transform="translate(152.999 305.992)" fill="#c5d2dc"/>
    </g>
    <g id="Group_729" data-name="Group 729" transform="translate(-3717.24 -21122.592)">
      <path id="Path_141" data-name="Path 141" d="M0,9.877S115.587-43.179,219.09,20.764c103.565,64,76.981,124,164.491,181.048,51.577,38.208,86.659,31.4,86.659,31.4s-67.544,39.724-147.252-7.622c-79.665-47.244-90.126-128.186-167.7-176.549C77.8.587,0,9.877,0,9.877" transform="translate(0 10.781)" fill="#cdbca4"/>
    </g>
  </g>
</svg>
